<?xml version="1.0" encoding="utf-8"?>
<!-- Generator: Adobe Illustrator 21.0.0, SVG Export Plug-In . SVG Version: 6.00 Build 0)  -->
<svg version="1.1" id="圖層_1" xmlns="http://www.w3.org/2000/svg" xmlns:xlink="http://www.w3.org/1999/xlink" x="0px" y="0px"
	 viewBox="0 0 28 32" style="enable-background:new 0 0 28 32;" xml:space="preserve">
<path d="M22,28H2V10h20v6h2V6c0-1.1-0.9-2-2-2h-6c0-2.2-1.8-4-4-4S8,1.8,8,4H2C0.9,4,0,4.9,0,6v22c0,1.1,0.9,2,2,2h20
	c1.1,0,2-0.9,2-2v-4h-2V28z M6,6c0.9,0,0.9,0,2,0s2-0.9,2-2s0.9-2,2-2s2,0.9,2,2s1,2,2,2s1,0,2,0s2,0.9,2,2H4C4,6.8,4.9,6,6,6z
	 M4,22h4v-2H4V22z M18,18v-4l-8,6l8,6v-4h10v-4H18z M4,26h6v-2H4V26z M14,12H4v2h10V12z M8,16H4v2h4V16z"/>
</svg>
